<svg xmlns="http://www.w3.org/2000/svg" width="24" height="24" viewBox="0 0 24 24">
  <path fill="#4285F4" d="M21.6 12.227c0-.708-.064-1.387-.185-2.043H12v3.867h5.6c-.242 1.3-.98 2.403-2.09 3.142v2.615h3.376c1.98-1.824 3.108-4.52 3.108-7.581z"/>
  <path fill="#34A853" d="M12 22c2.7 0 4.97-.9 6.627-2.437l-3.376-2.615c-.94.63-2.15 1.005-3.251 1.005-2.5 0-4.617-1.68-5.374-3.94H3.05v2.48C4.7 19.97 8.06 22 12 22z"/>
  <path fill="#FBBC05" d="M6.626 13.013A6.997 6.997 0 0 1 6 12c0-.333.038-.66.11-.987V8.533H3.05a10.98 10.98 0 0 0-1.05 3.467c0 1.78.428 3.46 1.177 4.99l3.449-3.977z"/>
  <path fill="#EA4335" d="M12 6.5c1.47 0 2.8.506 3.848 1.498l2.876-2.876C16.964 3.49 14.697 2.5 12 2.5 8.06 2.5 4.7 4.53 3.05 7.049l3.686 2.464C7.383 8.18 9.5 6.5 12 6.5z"/>
</svg>
